<svg id="svg" version="1.1" xmlns="http://www.w3.org/2000/svg" xmlns:xlink="http://www.w3.org/1999/xlink" width="400" height="103.21151716500555" viewBox="0, 0, 400,103.21151716500555"><g id="svgg"><path id="path0" d="M73.116 19.794 C 73.615 20.123,73.035 20.374,71.936 20.304 C 71.115 20.252,70.833 20.289,70.833 20.447 C 70.833 20.720,70.123 20.900,69.583 20.765 C 69.276 20.688,69.167 20.727,69.167 20.913 C 69.167 21.154,68.805 21.245,68.124 21.175 C 67.963 21.159,67.786 21.263,67.731 21.406 C 67.669 21.569,67.427 21.667,67.086 21.667 C 66.786 21.667,66.442 21.786,66.321 21.931 C 66.174 22.108,65.949 22.165,65.636 22.102 C 65.323 22.040,65.183 22.075,65.210 22.209 C 65.232 22.319,65.065 22.437,64.840 22.471 C 64.614 22.505,64.344 22.650,64.239 22.793 C 64.128 22.945,63.933 23.010,63.774 22.949 C 63.603 22.883,63.500 22.929,63.500 23.069 C 63.500 23.193,63.294 23.427,63.042 23.588 C 62.539 23.910,61.598 24.870,61.209 25.458 C 61.073 25.665,60.871 25.833,60.760 25.833 C 60.630 25.833,60.584 26.012,60.631 26.331 C 60.683 26.684,60.625 26.860,60.435 26.933 C 60.240 27.008,60.167 27.254,60.167 27.840 C 60.167 28.498,60.106 28.663,59.833 28.750 C 59.326 28.911,59.340 30.586,59.849 30.719 C 60.160 30.800,60.192 30.912,60.141 31.713 C 60.095 32.436,60.133 32.613,60.333 32.600 C 60.500 32.589,60.581 32.735,60.577 33.042 C 60.573 33.339,60.675 33.533,60.868 33.594 C 61.032 33.647,61.167 33.835,61.167 34.012 C 61.167 34.191,61.690 34.858,62.333 35.500 C 62.975 36.140,63.500 36.729,63.500 36.809 C 63.500 36.889,63.688 36.918,63.917 36.874 C 64.224 36.815,64.333 36.866,64.333 37.067 C 64.333 37.272,64.433 37.315,64.734 37.239 C 65.020 37.167,65.183 37.226,65.305 37.444 C 65.469 37.737,66.201 37.752,82.752 37.803 C 97.696 37.848,100.015 37.888,99.935 38.095 C 99.859 38.293,100.000 38.317,100.745 38.229 C 101.458 38.145,101.704 38.180,101.919 38.395 C 102.068 38.544,102.306 38.667,102.448 38.667 C 102.620 38.667,102.678 38.773,102.622 38.988 C 102.563 39.212,102.607 39.282,102.767 39.220 C 102.896 39.171,103.048 39.268,103.111 39.441 C 103.174 39.611,103.303 39.802,103.398 39.865 C 103.668 40.045,103.658 43.514,103.386 43.618 C 103.265 43.664,103.167 43.807,103.167 43.934 C 103.167 44.202,102.581 44.833,102.333 44.833 C 102.242 44.833,102.167 44.976,102.167 45.151 C 102.167 45.326,101.792 45.858,101.333 46.333 C 100.875 46.809,100.500 47.265,100.500 47.348 C 100.500 47.519,99.994 48.155,99.208 48.971 C 98.910 49.280,98.667 49.601,98.667 49.683 C 98.667 49.766,98.592 49.833,98.500 49.833 C 98.408 49.833,98.333 49.934,98.333 50.057 C 98.333 50.180,97.921 50.714,97.417 51.243 C 96.912 51.771,96.500 52.280,96.500 52.372 C 96.500 52.464,96.200 52.830,95.833 53.186 C 95.467 53.542,95.167 53.908,95.167 54.000 C 95.167 54.092,95.054 54.167,94.917 54.167 C 94.779 54.167,94.667 54.304,94.667 54.471 C 94.667 54.830,93.335 56.333,93.017 56.333 C 92.887 56.333,92.838 56.439,92.897 56.592 C 92.988 56.830,92.300 57.734,91.458 58.482 C 91.298 58.624,91.167 58.828,91.167 58.935 C 91.167 59.041,90.756 59.568,90.255 60.106 C 89.753 60.643,89.341 61.177,89.338 61.292 C 89.336 61.406,89.258 61.500,89.167 61.500 C 89.075 61.500,89.000 61.584,89.000 61.686 C 89.000 61.789,88.700 62.163,88.333 62.519 C 87.967 62.875,87.667 63.218,87.667 63.281 C 87.667 63.435,86.317 65.049,86.048 65.217 C 85.930 65.290,85.833 65.459,85.833 65.592 C 85.833 65.725,85.758 65.833,85.667 65.833 C 85.575 65.833,85.500 65.905,85.500 65.994 C 85.500 66.082,85.181 66.492,84.792 66.906 C 83.817 67.941,83.667 68.129,83.667 68.311 C 83.667 68.572,82.114 70.087,81.897 70.038 C 81.771 70.009,81.728 70.117,81.782 70.323 C 81.830 70.506,81.767 70.759,81.643 70.887 C 80.822 71.732,80.167 72.507,80.167 72.633 C 80.167 72.714,79.754 73.214,79.250 73.743 C 78.746 74.271,78.333 74.770,78.333 74.851 C 78.333 75.022,77.807 75.660,77.042 76.416 C 76.744 76.710,76.500 77.037,76.500 77.142 C 76.500 77.247,76.425 77.333,76.333 77.333 C 76.242 77.333,76.167 77.415,76.167 77.515 C 76.167 77.616,75.754 78.153,75.250 78.711 C 74.746 79.268,74.333 79.791,74.333 79.875 C 74.333 79.958,74.127 80.235,73.875 80.491 C 73.163 81.215,72.667 81.823,72.667 81.972 C 72.667 82.047,72.479 82.285,72.250 82.500 C 71.781 82.940,71.705 83.333,72.089 83.333 C 72.229 83.333,72.389 83.450,72.443 83.593 C 72.524 83.803,72.711 83.831,73.441 83.740 C 74.851 83.564,77.231 83.805,76.987 84.099 C 76.823 84.296,76.955 84.333,77.813 84.333 C 78.581 84.333,78.833 84.275,78.833 84.098 C 78.833 83.795,80.938 83.579,82.343 83.738 C 83.201 83.835,83.333 83.813,83.333 83.572 C 83.333 83.335,83.489 83.304,84.406 83.363 C 85.352 83.423,85.489 83.394,85.562 83.115 C 85.631 82.850,85.769 82.808,86.397 82.858 C 87.024 82.908,87.163 82.865,87.232 82.602 C 87.300 82.342,87.419 82.304,87.907 82.383 C 88.372 82.458,88.500 82.423,88.500 82.222 C 88.500 82.023,88.650 81.979,89.167 82.029 C 89.718 82.081,89.833 82.041,89.833 81.796 C 89.833 81.581,89.965 81.500,90.316 81.500 C 90.590 81.500,90.839 81.393,90.894 81.250 C 90.946 81.112,91.137 81.000,91.318 81.000 C 91.499 81.000,91.693 80.925,91.750 80.833 C 91.807 80.742,91.991 80.667,92.159 80.667 C 92.327 80.667,92.508 80.554,92.560 80.417 C 92.613 80.279,92.799 80.167,92.974 80.167 C 93.149 80.167,93.385 80.055,93.498 79.919 C 93.612 79.782,93.766 79.708,93.841 79.755 C 93.916 79.801,94.178 79.652,94.424 79.425 C 94.669 79.197,95.015 78.965,95.191 78.909 C 95.367 78.853,95.707 78.626,95.946 78.404 C 96.186 78.182,96.465 77.999,96.566 77.999 C 96.667 77.998,97.050 77.702,97.417 77.340 C 97.783 76.979,98.170 76.679,98.277 76.675 C 98.530 76.664,102.500 72.725,102.500 72.484 C 102.500 72.381,102.609 72.339,102.742 72.390 C 102.898 72.450,102.952 72.403,102.896 72.257 C 102.816 72.049,103.130 71.583,103.875 70.805 C 104.035 70.637,104.167 70.405,104.167 70.290 C 104.167 70.174,104.387 69.897,104.657 69.675 C 104.926 69.452,105.107 69.204,105.057 69.124 C 105.008 69.044,105.072 68.852,105.200 68.698 C 105.328 68.543,105.578 68.135,105.754 67.792 C 105.931 67.448,106.164 67.167,106.272 67.167 C 106.386 67.167,106.432 67.028,106.382 66.835 C 106.324 66.613,106.398 66.461,106.606 66.377 C 106.792 66.301,106.917 66.083,106.917 65.833 C 106.917 65.512,106.991 65.430,107.241 65.473 C 107.516 65.521,107.533 65.490,107.352 65.273 C 107.129 65.004,107.242 64.333,107.511 64.333 C 107.597 64.333,107.667 64.143,107.667 63.911 C 107.667 63.679,107.779 63.446,107.917 63.394 C 108.072 63.334,108.167 63.081,108.167 62.727 C 108.167 62.375,108.262 62.120,108.415 62.061 C 108.581 61.997,108.632 61.836,108.567 61.578 C 108.433 61.045,108.642 60.455,108.926 60.564 C 109.053 60.612,109.200 60.580,109.254 60.493 C 109.309 60.405,109.274 60.333,109.177 60.333 C 108.856 60.333,108.964 58.978,109.292 58.893 C 109.540 58.828,109.575 58.653,109.526 57.709 C 109.485 56.924,109.534 56.551,109.693 56.426 C 110.025 56.165,110.020 47.498,109.688 47.237 C 109.520 47.106,109.477 46.745,109.525 45.887 C 109.580 44.915,109.548 44.719,109.337 44.733 C 109.153 44.745,109.069 44.549,109.031 44.019 C 109.002 43.617,108.863 43.173,108.722 43.032 C 108.549 42.858,108.495 42.596,108.556 42.221 C 108.623 41.808,108.584 41.667,108.406 41.667 C 108.245 41.667,108.167 41.482,108.167 41.101 C 108.167 40.752,108.071 40.499,107.917 40.440 C 107.773 40.384,107.667 40.135,107.667 39.852 C 107.667 39.582,107.610 39.336,107.542 39.306 C 107.473 39.275,107.296 38.987,107.147 38.667 C 106.469 37.196,106.243 36.744,106.147 36.667 C 106.091 36.621,105.992 36.415,105.928 36.208 C 105.864 36.002,105.741 35.833,105.655 35.833 C 105.570 35.833,105.500 35.687,105.500 35.508 C 105.500 35.330,105.406 35.123,105.291 35.050 C 105.177 34.977,104.972 34.692,104.836 34.417 C 104.700 34.142,104.380 33.694,104.124 33.423 C 103.868 33.151,103.695 32.832,103.741 32.714 C 103.786 32.596,103.713 32.500,103.578 32.500 C 103.443 32.500,103.330 32.444,103.327 32.375 C 103.323 32.306,102.911 31.801,102.410 31.253 C 101.910 30.705,101.500 30.195,101.500 30.121 C 101.500 29.947,99.738 28.244,99.083 27.786 C 98.808 27.593,98.246 27.113,97.833 26.718 C 97.421 26.323,96.990 26.000,96.875 26.000 C 96.760 26.000,96.667 25.925,96.667 25.833 C 96.667 25.742,96.554 25.667,96.417 25.667 C 96.279 25.667,96.167 25.595,96.167 25.508 C 96.167 25.420,95.885 25.218,95.542 25.058 C 95.198 24.899,94.857 24.670,94.783 24.551 C 94.710 24.431,94.504 24.333,94.325 24.333 C 94.146 24.333,94.000 24.269,94.000 24.190 C 94.000 24.111,93.624 23.867,93.164 23.649 C 92.705 23.431,92.360 23.170,92.399 23.069 C 92.443 22.955,92.318 22.914,92.070 22.962 C 91.805 23.012,91.636 22.948,91.568 22.769 C 91.505 22.607,91.272 22.500,90.982 22.500 C 90.717 22.500,90.500 22.425,90.500 22.333 C 90.500 22.242,90.331 22.166,90.125 22.164 C 89.631 22.161,89.262 21.917,89.404 21.688 C 89.481 21.562,89.350 21.538,88.983 21.612 C 88.589 21.691,88.397 21.646,88.247 21.441 C 88.135 21.288,87.903 21.176,87.730 21.191 C 87.113 21.247,86.833 21.163,86.833 20.921 C 86.833 20.737,86.708 20.700,86.339 20.774 C 85.721 20.898,85.000 20.726,85.000 20.455 C 85.000 20.313,84.655 20.250,83.875 20.250 C 82.901 20.250,82.753 20.210,82.774 19.955 C 82.795 19.693,82.702 19.674,81.940 19.788 C 80.844 19.952,74.654 19.951,73.667 19.787 C 73.254 19.718,73.006 19.721,73.116 19.794 M155.033 28.220 C 154.908 28.567,154.833 29.802,154.833 31.522 C 154.833 33.461,154.772 34.351,154.625 34.548 C 154.378 34.877,142.565 35.073,142.430 34.750 C 142.391 34.658,142.354 35.521,142.346 36.667 L 142.333 38.750 148.374 38.704 C 153.970 38.662,154.431 38.680,154.629 38.951 C 154.798 39.182,154.843 42.002,154.847 52.580 C 154.852 66.482,154.890 67.868,155.270 68.183 C 155.396 68.288,155.500 68.552,155.500 68.770 C 155.500 68.988,155.575 69.167,155.667 69.167 C 155.758 69.167,155.833 69.307,155.833 69.480 C 155.833 69.652,155.946 69.886,156.083 70.000 C 156.221 70.114,156.333 70.303,156.333 70.419 C 156.333 70.800,158.117 72.453,158.943 72.836 C 161.453 74.004,161.757 74.029,172.583 73.966 C 182.891 73.905,183.171 73.883,185.140 72.960 C 186.127 72.497,187.645 71.233,187.894 70.667 C 187.955 70.529,188.231 70.042,188.508 69.583 C 189.082 68.632,189.037 68.739,189.411 67.417 C 189.567 66.867,189.669 66.154,189.639 65.833 L 189.583 65.250 187.643 65.203 L 185.703 65.156 185.522 65.674 C 185.423 65.959,185.269 66.147,185.181 66.092 C 185.082 66.031,185.058 66.227,185.118 66.601 C 185.194 67.064,185.152 67.245,184.942 67.363 C 184.791 67.447,184.667 67.631,184.667 67.771 C 184.667 68.108,183.765 69.000,183.424 69.000 C 183.277 69.000,183.110 69.122,183.052 69.270 C 182.965 69.497,182.778 69.523,181.891 69.432 C 181.006 69.342,180.833 69.366,180.833 69.579 C 180.833 69.804,179.828 69.833,172.149 69.833 C 164.350 69.833,163.475 69.807,163.564 69.573 C 163.651 69.347,163.516 69.328,162.524 69.426 C 161.561 69.521,161.368 69.496,161.280 69.269 C 161.224 69.121,161.081 68.998,160.964 68.994 C 160.644 68.986,160.000 68.399,160.000 68.116 C 160.000 67.980,159.879 67.823,159.731 67.766 C 159.560 67.700,159.494 67.542,159.549 67.329 C 159.607 67.109,159.528 66.937,159.317 66.824 C 158.979 66.644,158.806 39.409,159.139 38.876 C 159.240 38.713,162.553 38.659,174.426 38.626 L 189.583 38.583 189.583 36.750 L 189.583 34.917 174.375 34.874 C 166.010 34.851,159.152 34.813,159.134 34.791 C 159.116 34.768,159.060 33.287,159.009 31.500 L 158.917 28.250 157.216 28.203 C 155.803 28.163,155.531 28.114,155.609 27.911 C 155.664 27.768,155.605 27.667,155.468 27.667 C 155.339 27.667,155.144 27.916,155.033 28.220 M202.667 27.833 C 202.667 28.044,203.007 28.044,203.333 27.833 C 203.528 27.707,203.482 27.671,203.125 27.669 C 202.873 27.668,202.667 27.742,202.667 27.833 M205.391 27.911 C 205.468 28.112,205.216 28.163,203.951 28.202 L 202.417 28.250 202.371 31.241 C 202.311 35.153,202.643 34.833,198.651 34.833 C 196.664 34.833,195.481 34.897,195.413 35.007 C 195.330 35.140,195.277 37.303,195.326 38.500 C 195.331 38.605,196.551 38.667,198.639 38.667 C 201.896 38.667,201.947 38.672,202.142 39.042 C 202.292 39.326,202.329 43.571,202.295 56.623 C 202.258 70.830,202.289 73.845,202.472 73.915 C 202.815 74.047,205.896 74.010,206.083 73.872 C 206.193 73.792,206.221 70.044,206.166 62.917 C 206.119 56.958,206.141 51.952,206.213 51.792 C 206.413 51.350,206.813 51.442,206.936 51.958 C 206.997 52.210,207.104 52.492,207.175 52.583 C 207.414 52.893,207.538 53.957,207.348 54.074 C 207.079 54.241,207.128 54.667,207.417 54.667 C 207.682 54.667,207.739 54.913,207.676 55.804 C 207.651 56.171,207.735 56.430,207.926 56.570 C 208.156 56.738,208.198 56.953,208.132 57.635 C 208.087 58.104,208.105 58.455,208.173 58.413 C 208.475 58.226,208.701 58.856,208.592 59.582 C 208.503 60.178,208.529 60.333,208.720 60.333 C 209.040 60.333,209.173 60.896,208.998 61.508 C 208.884 61.904,208.915 62.032,209.156 62.161 C 209.321 62.249,209.501 62.549,209.557 62.827 L 209.658 63.333 211.480 63.333 L 213.302 63.333 213.210 62.292 C 213.160 61.719,213.017 61.102,212.893 60.921 C 212.768 60.740,212.664 60.253,212.661 59.838 C 212.658 59.423,212.546 58.938,212.411 58.760 C 212.277 58.582,212.167 58.118,212.167 57.728 C 212.167 57.338,212.092 56.973,212.000 56.917 C 211.908 56.860,211.833 56.452,211.833 56.011 C 211.833 55.500,211.742 55.132,211.583 55.000 C 211.423 54.867,211.333 54.498,211.333 53.968 C 211.333 53.436,211.239 53.049,211.068 52.878 C 210.870 52.680,210.830 52.436,210.909 51.910 C 210.994 51.343,210.960 51.187,210.734 51.100 C 210.501 51.011,210.469 50.829,210.543 50.018 C 210.618 49.184,210.592 49.046,210.357 49.063 C 210.131 49.080,210.087 48.919,210.102 48.139 C 210.115 47.439,210.065 47.216,209.908 47.276 C 209.610 47.391,209.453 46.770,209.585 45.993 C 209.673 45.472,209.644 45.333,209.449 45.333 C 209.144 45.333,208.957 44.647,209.103 44.065 L 209.212 43.631 207.731 43.690 L 206.250 43.750 206.203 41.519 C 206.142 38.583,206.070 38.667,208.659 38.667 C 211.033 38.667,211.000 38.693,211.000 36.814 C 211.000 34.710,211.139 34.834,208.774 34.828 C 206.003 34.821,206.167 35.025,206.167 31.577 C 206.167 28.720,205.996 27.667,205.532 27.667 C 205.395 27.667,205.336 27.768,205.391 27.911 M230.604 27.910 C 230.681 28.112,230.416 28.162,229.059 28.202 C 227.286 28.254,227.059 28.402,227.480 29.230 C 227.578 29.424,227.777 29.958,227.921 30.417 C 228.065 30.875,228.251 31.400,228.333 31.583 C 228.415 31.767,228.718 32.517,229.005 33.250 C 229.293 33.983,229.701 34.958,229.913 35.417 C 231.040 37.858,231.407 38.589,231.530 38.639 C 231.605 38.669,231.667 38.829,231.667 38.993 C 231.667 39.158,231.783 39.389,231.925 39.507 C 232.069 39.626,232.161 39.913,232.133 40.152 L 232.083 40.583 227.466 40.628 C 222.279 40.677,222.229 40.666,222.809 39.559 C 223.813 37.640,225.000 35.148,225.000 34.958 C 225.000 34.835,225.087 34.646,225.194 34.540 C 225.300 34.433,225.409 34.139,225.436 33.885 C 225.463 33.631,225.591 33.346,225.720 33.251 C 225.873 33.140,225.926 32.889,225.873 32.530 C 225.809 32.092,225.856 31.963,226.105 31.898 C 226.376 31.827,226.417 31.646,226.417 30.508 C 226.417 28.270,226.196 28.206,218.296 28.177 L 212.675 28.157 212.580 28.537 C 212.528 28.746,212.507 29.592,212.534 30.417 L 212.583 31.917 216.903 31.961 C 222.457 32.018,222.245 31.815,220.483 35.417 C 219.200 38.040,218.822 38.465,218.267 37.910 C 218.133 37.776,217.942 37.667,217.843 37.667 C 217.659 37.667,217.513 37.605,216.528 37.112 C 216.223 36.959,215.876 36.833,215.757 36.833 C 215.638 36.833,215.447 36.721,215.333 36.583 C 215.219 36.446,214.978 36.333,214.797 36.333 C 214.617 36.333,214.433 36.197,214.390 36.031 C 214.330 35.802,214.191 35.745,213.822 35.799 C 213.454 35.853,213.333 35.805,213.333 35.602 C 213.333 35.415,213.182 35.333,212.833 35.333 C 212.558 35.333,212.333 35.254,212.333 35.156 C 212.333 35.058,212.104 35.002,211.819 35.031 L 211.304 35.083 211.300 36.861 C 211.296 38.775,211.352 39.000,211.833 39.000 C 212.006 39.000,212.192 39.073,212.247 39.162 C 212.302 39.251,212.626 39.445,212.965 39.593 C 213.305 39.740,213.696 39.926,213.833 40.005 C 213.971 40.084,214.541 40.369,215.100 40.637 C 216.766 41.438,216.652 41.741,213.704 44.330 L 212.491 45.395 212.537 47.573 C 212.590 50.047,212.650 50.120,213.926 49.254 C 214.267 49.023,214.611 48.833,214.690 48.833 C 214.769 48.833,214.836 51.815,214.839 55.458 C 214.845 62.834,214.825 62.707,215.990 62.940 C 216.274 62.996,216.547 63.108,216.597 63.188 C 216.715 63.380,236.953 63.378,237.072 63.186 C 237.122 63.104,237.426 62.988,237.748 62.928 C 238.070 62.868,238.333 62.718,238.333 62.596 C 238.333 62.474,238.446 62.281,238.583 62.167 C 238.798 61.989,238.833 61.049,238.833 55.594 L 238.833 49.228 238.234 48.697 L 237.635 48.167 226.979 48.167 C 214.469 48.167,215.377 48.366,217.678 46.129 L 219.235 44.616 220.409 44.511 C 221.055 44.453,224.621 44.419,228.333 44.434 L 235.083 44.462 236.701 46.016 C 237.591 46.871,238.465 47.625,238.645 47.691 C 238.825 47.758,239.034 47.911,239.111 48.032 C 239.564 48.748,241.820 50.071,241.847 49.636 C 242.000 47.077,241.709 44.667,241.246 44.667 C 240.940 44.667,237.667 41.189,237.667 40.863 C 237.667 40.683,238.212 40.059,238.946 39.400 C 240.975 37.575,240.802 37.955,240.866 35.190 C 240.939 32.029,240.995 32.090,239.405 33.609 C 237.762 35.179,235.538 37.167,235.425 37.167 C 235.158 37.167,234.804 36.631,234.879 36.342 C 234.935 36.127,234.856 36.001,234.627 35.941 C 234.358 35.871,234.314 35.766,234.403 35.413 C 234.467 35.156,234.449 35.012,234.359 35.068 C 234.274 35.120,234.106 35.044,233.986 34.900 C 233.752 34.618,234.145 34.201,238.458 30.141 C 240.657 28.071,240.704 28.167,237.493 28.167 L 234.819 28.167 233.955 28.958 C 233.480 29.394,232.987 29.848,232.858 29.967 C 232.472 30.326,231.940 30.138,231.775 29.583 C 231.693 29.308,231.523 28.884,231.396 28.641 C 231.270 28.398,231.167 28.079,231.167 27.933 C 231.167 27.779,231.028 27.667,230.839 27.667 C 230.619 27.667,230.541 27.747,230.604 27.910 M239.583 27.833 C 239.640 27.925,239.832 28.000,240.010 28.000 C 240.188 28.000,240.333 27.925,240.333 27.833 C 240.333 27.742,240.141 27.667,239.907 27.667 C 239.665 27.667,239.525 27.739,239.583 27.833 M249.089 27.842 C 249.148 27.938,249.021 28.194,248.807 28.410 C 248.592 28.625,247.971 29.259,247.427 29.818 C 246.883 30.376,246.379 30.833,246.309 30.833 C 246.238 30.833,246.027 30.997,245.840 31.198 C 245.475 31.590,245.304 35.833,245.653 35.833 C 245.888 35.833,246.831 35.267,246.832 35.125 C 246.833 35.056,246.977 35.000,247.153 35.000 C 247.328 35.000,247.497 34.944,247.528 34.875 C 247.605 34.701,249.143 33.667,249.324 33.667 C 249.406 33.667,249.497 33.610,249.528 33.540 C 249.558 33.470,249.882 33.170,250.246 32.873 L 250.909 32.333 252.996 32.336 C 254.144 32.337,255.179 32.399,255.295 32.473 C 255.535 32.625,255.667 37.389,255.437 37.619 C 255.365 37.691,253.119 37.787,250.445 37.833 L 245.583 37.917 245.583 39.917 L 245.583 41.917 249.750 42.000 C 253.903 42.083,253.917 42.084,253.879 42.445 C 253.839 42.834,252.387 44.323,252.042 44.329 C 251.927 44.332,251.833 44.408,251.833 44.500 C 251.833 44.592,251.718 44.667,251.578 44.667 C 251.438 44.667,251.280 44.779,251.227 44.917 C 251.174 45.054,250.989 45.167,250.816 45.167 C 250.642 45.167,250.500 45.240,250.500 45.329 C 250.500 45.477,248.868 46.312,246.458 47.397 L 245.500 47.829 245.500 49.877 C 245.500 51.720,245.534 51.955,245.833 52.211 C 246.151 52.483,246.167 52.481,246.167 52.165 C 246.167 51.983,246.279 51.824,246.417 51.813 C 246.770 51.783,246.824 51.765,247.722 51.361 C 248.165 51.163,248.570 51.000,248.623 51.000 C 248.873 51.000,253.500 48.611,253.500 48.482 C 253.500 48.400,253.583 48.333,253.684 48.333 C 253.948 48.333,255.075 47.433,256.333 46.217 C 257.448 45.141,257.807 44.984,258.167 45.417 C 258.281 45.554,258.477 45.667,258.604 45.667 C 258.730 45.667,258.833 45.734,258.833 45.815 C 258.833 45.897,259.021 46.011,259.250 46.068 C 259.479 46.126,259.667 46.247,259.667 46.337 C 259.667 46.426,259.812 46.500,259.990 46.500 C 260.168 46.500,260.357 46.571,260.411 46.657 C 260.464 46.743,260.862 46.987,261.295 47.198 C 261.729 47.410,262.121 47.621,262.167 47.667 C 262.256 47.756,262.346 47.807,264.000 48.702 C 264.596 49.024,265.346 49.437,265.667 49.618 C 265.987 49.800,266.681 50.192,267.208 50.490 C 267.735 50.788,268.209 51.100,268.260 51.183 C 268.700 51.895,268.841 51.271,268.796 48.800 L 268.750 46.267 267.833 45.789 C 267.329 45.525,266.575 45.100,266.158 44.843 C 265.740 44.587,265.234 44.324,265.033 44.260 C 264.831 44.196,264.667 44.074,264.667 43.989 C 264.667 43.903,264.514 43.833,264.328 43.833 C 264.142 43.833,263.946 43.721,263.894 43.583 C 263.841 43.446,263.653 43.333,263.477 43.333 C 263.301 43.333,263.116 43.229,263.067 43.102 C 263.016 42.968,262.842 42.906,262.655 42.955 C 262.255 43.059,261.833 42.730,261.833 42.313 C 261.833 41.937,261.523 41.963,265.542 41.998 L 268.833 42.027 268.833 39.930 L 268.833 37.833 264.572 37.833 C 259.202 37.833,259.667 38.092,259.667 35.098 C 259.667 32.069,259.185 32.348,264.503 32.294 L 268.895 32.250 268.853 30.333 C 268.806 28.115,268.726 27.667,268.378 27.667 C 268.173 27.667,268.164 27.713,268.333 27.917 C 268.517 28.138,267.462 28.167,259.003 28.167 C 250.593 28.167,249.476 28.137,249.560 27.917 C 249.626 27.745,249.550 27.667,249.318 27.667 C 249.124 27.667,249.027 27.741,249.089 27.842 M273.928 27.852 C 274.075 28.089,273.702 28.326,273.167 28.336 C 272.629 28.347,272.147 28.762,271.787 29.525 C 271.310 30.536,271.353 48.224,271.834 49.168 C 272.404 50.285,272.072 50.245,281.167 50.302 C 291.130 50.366,292.000 50.274,292.000 49.159 C 292.000 49.072,292.094 49.000,292.208 49.000 C 292.373 49.000,292.407 46.987,292.372 39.373 L 292.328 29.747 291.684 28.998 L 291.039 28.250 282.611 28.200 C 275.335 28.157,274.196 28.117,274.276 27.908 C 274.334 27.757,274.265 27.667,274.091 27.667 C 273.930 27.667,273.862 27.744,273.928 27.852 M303.167 27.899 C 303.167 28.027,303.060 28.172,302.929 28.222 C 302.798 28.273,302.667 28.524,302.637 28.782 L 302.583 29.250 299.975 29.296 C 296.805 29.352,296.946 29.247,296.967 31.518 C 296.987 33.770,296.846 33.667,299.926 33.667 C 302.351 33.667,302.483 33.684,302.586 34.008 C 302.769 34.584,302.388 34.833,301.322 34.833 C 300.170 34.833,299.990 34.974,298.750 36.833 C 298.292 37.521,297.879 38.121,297.833 38.167 C 297.681 38.319,297.335 38.911,297.152 39.333 C 296.989 39.709,296.922 43.311,297.075 43.464 C 297.185 43.574,297.841 43.159,298.508 42.556 C 299.470 41.687,299.516 41.808,299.492 45.198 L 299.471 48.202 299.934 48.684 L 300.396 49.167 305.893 49.167 C 310.843 49.167,311.422 49.138,311.705 48.882 C 312.269 48.371,312.577 48.778,312.626 50.101 C 312.693 51.891,313.326 51.738,305.465 51.833 L 298.583 51.917 298.535 53.583 C 298.508 54.500,298.523 55.400,298.569 55.583 C 298.651 55.912,298.772 55.916,308.096 55.871 C 318.782 55.819,318.000 55.710,318.000 57.253 C 318.000 58.622,318.879 58.513,308.015 58.494 L 298.583 58.479 298.583 60.448 L 298.583 62.417 308.250 62.500 L 317.917 62.583 317.967 63.651 C 318.002 64.393,317.951 64.762,317.800 64.857 C 317.681 64.933,312.999 64.996,307.395 64.997 C 299.438 64.999,297.175 65.046,297.059 65.208 C 296.977 65.323,296.949 66.204,296.997 67.167 L 297.083 68.917 307.319 69.000 C 314.866 69.061,317.573 69.134,317.620 69.276 C 317.811 69.849,315.042 71.131,313.000 71.415 C 311.590 71.611,311.582 71.624,311.597 73.538 C 311.606 74.686,311.674 75.253,311.808 75.297 C 312.397 75.494,317.486 74.532,317.908 74.145 C 317.995 74.065,318.205 74.000,318.375 74.000 C 319.144 74.000,321.667 71.937,321.667 71.308 C 321.667 71.150,321.733 70.979,321.814 70.928 C 321.896 70.878,322.015 70.558,322.078 70.218 C 322.321 68.926,321.663 69.000,332.942 69.000 L 343.000 69.000 343.000 67.000 L 343.000 65.000 332.875 64.995 C 324.596 64.990,322.695 64.948,322.451 64.762 C 322.013 64.431,321.895 63.435,322.233 62.920 L 322.508 62.500 331.592 62.500 C 338.713 62.500,340.692 62.455,340.745 62.292 C 340.783 62.177,340.838 61.277,340.869 60.292 L 340.925 58.500 331.868 58.500 C 321.656 58.500,322.167 58.565,322.167 57.270 C 322.167 55.750,321.716 55.834,329.930 55.827 C 335.817 55.823,337.157 55.779,337.500 55.583 C 337.729 55.452,338.199 55.342,338.544 55.339 C 338.889 55.336,339.301 55.264,339.461 55.179 C 339.620 55.094,339.884 54.983,340.047 54.932 C 340.313 54.849,340.339 54.638,340.297 52.878 L 340.250 50.917 339.181 50.880 C 338.358 50.852,338.067 50.906,337.915 51.114 C 337.755 51.332,337.519 51.366,336.691 51.291 C 335.846 51.215,335.638 51.247,335.511 51.474 C 335.357 51.750,316.547 52.015,315.859 51.751 C 315.561 51.637,316.116 50.986,316.809 50.635 C 317.687 50.191,318.427 49.608,318.917 48.973 C 319.192 48.616,319.510 48.219,319.625 48.091 C 319.740 47.962,319.833 47.673,319.833 47.449 C 319.833 47.224,319.946 46.947,320.083 46.833 C 320.395 46.575,320.464 37.434,320.156 37.244 C 320.059 37.183,319.911 36.954,319.827 36.734 C 319.743 36.514,319.564 36.333,319.429 36.333 C 319.294 36.333,319.119 36.218,319.039 36.077 C 318.913 35.851,318.007 35.821,311.615 35.830 L 304.333 35.840 304.333 35.426 C 304.333 34.901,304.765 34.667,305.730 34.667 C 306.386 34.667,306.510 34.608,306.701 34.208 C 306.919 33.752,306.929 33.750,309.002 33.667 C 311.950 33.549,312.196 33.584,312.535 34.174 C 313.011 35.002,316.352 34.911,316.675 34.061 C 316.841 33.625,316.699 33.645,319.625 33.643 C 321.844 33.641,321.705 33.811,321.632 31.167 L 321.583 29.417 319.215 29.370 L 316.846 29.324 316.466 28.495 L 316.085 27.667 314.459 27.667 C 313.027 27.667,312.832 27.701,312.821 27.958 C 312.814 28.119,312.677 28.475,312.516 28.750 L 312.223 29.250 309.676 29.296 C 306.841 29.347,306.750 29.319,306.582 28.324 L 306.471 27.667 304.819 27.667 C 303.518 27.667,303.167 27.716,303.167 27.899 M330.926 27.911 C 331.217 28.131,331.032 28.157,329.145 28.161 C 327.490 28.166,326.997 28.220,326.835 28.415 C 326.722 28.551,326.569 28.626,326.497 28.581 C 326.424 28.536,326.403 28.649,326.451 28.831 C 326.506 29.041,326.440 29.200,326.269 29.266 C 326.121 29.323,326.000 29.493,326.000 29.645 C 326.000 29.796,325.831 30.107,325.625 30.335 C 325.419 30.563,325.033 31.087,324.767 31.500 C 324.501 31.912,323.883 32.642,323.392 33.121 L 322.500 33.993 322.500 36.080 C 322.500 37.227,322.498 38.223,322.495 38.292 C 322.492 38.360,322.679 38.440,322.911 38.469 C 323.144 38.498,323.333 38.442,323.333 38.344 C 323.333 38.247,323.474 38.167,323.646 38.167 C 323.818 38.167,324.053 38.054,324.167 37.917 C 324.281 37.779,324.477 37.667,324.604 37.667 C 324.730 37.667,324.833 37.589,324.833 37.494 C 324.833 37.377,324.941 37.379,325.167 37.500 C 325.350 37.598,325.500 37.818,325.500 37.988 C 325.500 38.158,325.612 38.341,325.750 38.394 C 325.887 38.446,326.000 38.596,326.000 38.727 C 326.000 38.858,326.112 39.008,326.250 39.060 C 326.387 39.113,326.500 39.239,326.500 39.340 C 326.500 39.525,327.460 40.746,328.457 41.830 C 329.166 42.600,329.075 43.333,328.270 43.333 C 328.131 43.333,327.947 43.457,327.863 43.608 C 327.763 43.786,327.584 43.850,327.354 43.791 C 327.122 43.730,327.000 43.775,327.000 43.922 C 327.000 44.296,326.630 44.403,326.405 44.095 C 326.211 43.830,326.189 43.838,326.138 44.195 C 326.100 44.463,325.955 44.601,325.667 44.640 C 325.438 44.671,325.122 44.811,324.966 44.951 C 324.784 45.113,324.468 45.180,324.091 45.136 C 323.677 45.088,323.500 45.133,323.500 45.288 C 323.500 45.409,323.280 45.552,323.010 45.606 L 322.520 45.704 322.468 47.560 C 322.407 49.766,322.427 49.804,323.459 49.510 C 323.894 49.385,324.512 49.248,324.833 49.205 C 325.154 49.162,325.492 49.068,325.583 48.995 C 325.675 48.923,326.032 48.810,326.377 48.746 C 326.722 48.682,327.045 48.562,327.095 48.481 C 327.145 48.400,327.360 48.333,327.573 48.333 C 327.785 48.333,328.053 48.221,328.167 48.083 C 328.281 47.946,328.546 47.833,328.757 47.833 C 328.967 47.833,329.164 47.777,329.194 47.708 C 329.225 47.640,329.587 47.412,330.000 47.202 C 330.986 46.701,331.313 46.492,331.823 46.042 C 332.364 45.563,332.741 45.568,333.273 46.060 C 333.714 46.470,336.277 47.833,336.605 47.833 C 336.708 47.833,336.886 47.946,337.000 48.083 C 337.114 48.221,337.381 48.333,337.594 48.333 C 337.806 48.333,338.024 48.404,338.077 48.490 C 338.131 48.577,338.511 48.698,338.923 48.760 C 339.334 48.821,339.712 48.938,339.762 49.019 C 339.812 49.100,340.064 49.167,340.322 49.167 C 340.580 49.167,341.110 49.279,341.500 49.417 C 343.006 49.948,343.000 49.955,343.000 47.583 C 343.000 45.843,342.959 45.500,342.750 45.500 C 342.613 45.500,342.500 45.397,342.500 45.270 C 342.500 45.098,342.320 45.061,341.780 45.122 C 341.258 45.181,340.987 45.130,340.792 44.935 C 340.645 44.787,340.291 44.667,340.007 44.667 C 339.702 44.667,339.450 44.565,339.394 44.418 C 339.330 44.250,339.170 44.201,338.901 44.269 C 338.624 44.338,338.472 44.288,338.400 44.101 C 338.344 43.954,338.126 43.833,337.917 43.833 C 337.707 43.833,337.492 43.721,337.440 43.583 C 337.387 43.446,337.240 43.333,337.114 43.333 C 335.858 43.333,335.590 42.493,336.458 41.279 C 336.802 40.799,337.165 40.259,337.265 40.078 C 337.365 39.898,337.684 39.323,337.974 38.801 C 338.263 38.279,338.500 37.735,338.500 37.592 C 338.500 37.450,338.575 37.333,338.667 37.333 C 338.758 37.333,338.833 37.213,338.833 37.067 C 338.833 36.920,338.934 36.564,339.057 36.275 C 339.181 35.986,339.420 35.313,339.589 34.779 C 339.986 33.523,340.274 33.333,341.787 33.333 L 343.000 33.333 343.000 31.417 C 343.000 30.363,342.981 29.486,342.958 29.468 C 342.935 29.451,340.329 29.394,337.167 29.343 C 332.191 29.263,331.420 29.216,331.443 29.000 C 331.458 28.863,331.524 28.506,331.589 28.208 C 331.705 27.682,331.692 27.667,331.156 27.667 C 330.634 27.667,330.621 27.680,330.926 27.911 M315.417 28.000 C 315.639 28.096,315.334 28.139,314.500 28.130 C 313.395 28.118,313.337 28.103,314.000 28.000 C 315.035 27.839,315.042 27.839,315.417 28.000 M305.288 28.122 C 304.942 28.158,304.417 28.157,304.121 28.120 C 303.825 28.083,304.108 28.054,304.750 28.055 C 305.392 28.055,305.634 28.086,305.288 28.122 M287.994 32.656 C 288.217 33.073,288.226 45.647,288.004 46.000 C 287.784 46.349,276.170 46.479,276.161 46.133 C 276.158 46.014,276.158 43.029,276.162 39.500 C 276.165 35.782,276.102 32.982,276.011 32.841 C 275.705 32.366,276.090 32.333,281.921 32.333 C 287.584 32.333,287.829 32.346,287.994 32.656 M334.958 33.438 C 335.416 33.561,335.517 34.773,335.083 34.940 C 334.946 34.992,334.833 35.217,334.833 35.440 C 334.833 35.662,334.719 35.888,334.578 35.942 C 334.417 36.003,334.360 36.155,334.423 36.354 C 334.487 36.555,334.429 36.705,334.261 36.769 C 334.118 36.824,334.000 37.002,334.000 37.164 C 334.000 37.326,333.887 37.553,333.750 37.667 C 333.612 37.781,333.500 37.946,333.500 38.035 C 333.500 38.453,332.460 39.625,332.158 39.546 C 331.824 39.459,330.407 37.834,330.119 37.208 C 330.024 37.002,329.885 36.833,329.811 36.833 C 329.736 36.833,329.521 36.496,329.333 36.083 C 329.145 35.671,328.919 35.333,328.829 35.333 C 328.740 35.333,328.667 35.146,328.667 34.917 C 328.667 34.688,328.592 34.500,328.500 34.500 C 328.100 34.500,328.342 33.691,328.792 33.527 C 329.287 33.346,334.343 33.273,334.958 33.438 M321.396 36.667 C 321.396 37.721,321.423 38.152,321.456 37.625 C 321.490 37.098,321.490 36.235,321.456 35.708 C 321.423 35.181,321.396 35.612,321.396 36.667 M145.885 39.625 C 147.335 39.653,149.660 39.652,151.052 39.625 C 152.444 39.597,151.258 39.574,148.417 39.574 C 145.575 39.574,144.436 39.597,145.885 39.625 M167.208 39.625 C 171.219 39.650,177.781 39.650,181.792 39.625 C 185.802 39.600,182.521 39.580,174.500 39.580 C 166.479 39.580,163.198 39.600,167.208 39.625 M197.217 39.624 C 198.023 39.655,199.298 39.655,200.050 39.624 C 200.802 39.593,200.142 39.568,198.583 39.568 C 197.025 39.568,196.410 39.594,197.217 39.624 M208.213 39.623 C 208.652 39.657,209.327 39.657,209.713 39.622 C 210.100 39.587,209.742 39.559,208.917 39.559 C 208.092 39.560,207.775 39.588,208.213 39.623 M315.855 40.275 C 316.116 40.590,316.167 44.711,315.921 45.583 C 315.599 46.722,314.080 47.833,312.844 47.833 L 312.333 47.833 312.333 45.023 L 312.333 42.212 311.894 41.773 L 311.455 41.333 306.519 41.331 C 300.586 41.328,300.242 41.263,301.109 40.305 C 301.514 39.858,315.485 39.830,315.855 40.275 M196.663 49.458 C 196.662 52.644,196.582 55.775,196.487 56.417 C 196.392 57.058,196.249 58.896,196.168 60.500 C 196.087 62.104,195.896 64.504,195.743 65.833 C 195.590 67.162,195.454 68.545,195.441 68.905 L 195.417 69.560 197.143 69.546 C 198.092 69.537,198.930 69.468,199.005 69.390 C 199.149 69.242,199.569 66.276,199.745 64.167 C 199.864 62.751,199.960 62.333,200.166 62.333 C 200.244 62.333,200.347 62.465,200.395 62.625 C 200.442 62.785,200.446 62.504,200.404 62.000 C 200.060 57.901,200.155 54.833,200.625 54.833 C 200.854 54.833,200.872 54.533,200.776 52.307 C 200.716 50.917,200.667 48.405,200.667 46.724 L 200.667 43.667 198.667 43.667 L 196.667 43.667 196.663 49.458 M305.902 44.847 C 307.150 44.868,308.220 44.836,308.280 44.776 C 308.534 44.521,308.667 44.708,308.667 45.322 C 308.667 46.158,308.650 46.162,305.725 46.095 C 303.102 46.035,303.000 46.007,303.000 45.351 C 303.000 44.825,303.142 44.622,303.433 44.733 C 303.543 44.775,304.654 44.827,305.902 44.847 M223.386 44.958 C 225.570 44.985,229.095 44.985,231.220 44.958 C 233.345 44.932,231.558 44.910,227.250 44.910 C 222.942 44.910,221.203 44.932,223.386 44.958 M321.394 47.917 C 321.395 48.833,321.423 49.187,321.456 48.703 C 321.490 48.218,321.490 47.468,321.456 47.036 C 321.421 46.604,321.394 47.000,321.394 47.917 M234.574 51.890 C 234.728 51.949,234.810 52.070,234.755 52.158 C 234.616 52.383,234.616 58.187,234.755 58.542 C 235.073 59.355,235.234 59.340,226.819 59.293 L 218.963 59.250 218.940 55.547 L 218.917 51.844 220.583 51.797 C 223.648 51.711,234.291 51.781,234.574 51.890 M341.214 53.083 C 341.216 53.542,341.248 53.709,341.286 53.456 C 341.325 53.203,341.324 52.828,341.284 52.623 C 341.244 52.418,341.213 52.625,341.214 53.083 M258.888 52.958 C 264.372 52.983,273.297 52.983,278.721 52.958 C 284.145 52.934,279.658 52.914,268.750 52.914 C 257.842 52.914,253.404 52.934,258.888 52.958 M248.981 53.799 C 248.708 54.518,248.811 72.288,249.091 72.567 C 249.224 72.700,249.333 72.889,249.333 72.986 C 249.333 73.083,249.632 73.351,249.997 73.581 L 250.660 74.000 268.755 74.000 C 285.235 74.000,286.897 73.975,287.383 73.725 C 288.584 73.107,288.508 73.856,288.460 63.181 L 288.417 53.583 268.772 53.500 L 249.127 53.417 248.981 53.799 M284.167 57.663 C 284.478 57.860,284.616 60.518,284.351 61.209 L 284.174 61.668 268.812 61.626 L 253.449 61.583 253.433 59.625 C 253.423 58.462,253.484 57.638,253.583 57.597 C 253.943 57.445,283.924 57.510,284.167 57.663 M216.601 65.764 C 216.441 66.181,216.481 66.333,216.750 66.333 C 216.923 66.333,217.000 66.507,217.000 66.899 C 217.000 67.259,217.095 67.501,217.262 67.565 C 217.421 67.626,217.504 67.819,217.473 68.056 C 217.445 68.270,217.556 68.580,217.720 68.744 C 217.894 68.918,217.997 69.224,217.967 69.479 L 217.917 69.917 215.333 70.000 L 212.750 70.083 212.750 72.000 L 212.750 73.917 226.500 73.963 C 234.063 73.988,240.400 73.972,240.583 73.928 C 240.895 73.854,240.913 73.735,240.859 72.132 C 240.784 69.892,240.956 70.017,237.858 69.962 C 235.271 69.917,235.250 69.913,235.195 69.530 C 235.157 69.263,235.237 69.117,235.452 69.061 C 235.698 68.996,235.750 68.859,235.697 68.408 C 235.649 67.994,235.704 67.808,235.899 67.734 C 236.046 67.677,236.167 67.449,236.167 67.226 C 236.167 67.004,236.287 66.637,236.435 66.412 C 236.950 65.626,236.699 65.499,234.630 65.505 C 232.642 65.511,232.167 65.660,232.167 66.278 C 232.167 66.457,232.057 66.749,231.922 66.926 C 231.787 67.104,231.672 67.400,231.667 67.583 C 231.661 67.767,231.546 68.062,231.411 68.240 C 231.277 68.418,231.167 68.702,231.167 68.871 C 231.167 69.040,231.046 69.363,230.897 69.589 L 230.628 70.000 226.595 70.000 L 222.562 70.000 222.281 69.411 C 222.126 69.087,222.000 68.684,222.000 68.515 C 222.000 68.346,221.887 68.114,221.750 68.000 C 221.612 67.886,221.500 67.577,221.500 67.313 C 221.500 67.049,221.433 66.833,221.352 66.833 C 221.270 66.833,221.156 66.578,221.097 66.266 C 220.961 65.537,220.839 65.500,218.588 65.500 C 217.022 65.500,216.685 65.545,216.601 65.764 M284.297 67.583 L 284.343 69.417 268.911 69.377 L 253.479 69.337 253.478 67.710 C 253.478 66.815,253.483 65.989,253.489 65.874 C 253.498 65.708,256.634 65.674,268.875 65.707 L 284.250 65.750 284.297 67.583 " stroke="none" fill="#fc7d08" fill-rule="evenodd"></path><path id="path1" d="M52.138 43.816 C 52.108 43.895,51.709 44.004,51.251 44.059 C 50.794 44.114,50.394 44.236,50.362 44.329 C 50.331 44.423,50.124 44.500,49.903 44.500 C 49.656 44.500,49.500 44.597,49.500 44.750 C 49.500 44.887,49.389 45.000,49.254 45.000 C 49.119 45.000,48.762 45.150,48.462 45.333 C 48.162 45.516,47.973 45.666,48.042 45.666 C 48.110 45.666,48.017 45.817,47.833 46.000 C 47.650 46.183,47.425 46.333,47.333 46.333 C 47.242 46.333,47.167 46.451,47.167 46.595 C 47.167 46.739,47.073 46.962,46.958 47.089 C 46.429 47.680,46.333 47.841,46.333 48.142 C 46.333 48.319,46.221 48.508,46.083 48.560 C 45.923 48.622,45.832 48.882,45.831 49.286 C 45.829 49.695,45.779 49.838,45.687 49.694 C 45.431 49.290,45.376 50.015,45.421 53.178 C 45.450 55.234,45.525 56.258,45.649 56.300 C 45.755 56.335,45.833 56.765,45.833 57.315 C 45.833 57.896,45.929 58.396,46.078 58.593 C 46.219 58.780,46.325 59.289,46.328 59.797 C 46.332 60.405,46.407 60.706,46.573 60.769 C 46.705 60.820,46.774 60.962,46.726 61.085 C 46.679 61.209,46.763 61.570,46.914 61.887 C 47.065 62.205,47.195 62.698,47.203 62.982 C 47.212 63.298,47.305 63.500,47.442 63.500 C 47.566 63.500,47.667 63.641,47.667 63.814 C 47.667 63.987,47.775 64.338,47.908 64.594 C 48.041 64.850,48.116 65.113,48.076 65.179 C 48.035 65.245,48.114 65.341,48.251 65.394 C 48.388 65.447,48.500 65.637,48.500 65.816 C 48.500 65.996,48.600 66.243,48.722 66.365 C 48.844 66.487,48.991 66.775,49.049 67.005 C 49.107 67.235,49.307 67.587,49.494 67.788 C 49.680 67.989,49.833 68.306,49.833 68.493 C 49.833 68.684,49.943 68.833,50.083 68.833 C 50.221 68.833,50.333 68.931,50.333 69.050 C 50.333 69.433,50.743 70.164,50.958 70.165 C 51.073 70.166,51.167 70.354,51.167 70.583 C 51.167 70.843,51.261 71.000,51.417 71.000 C 51.554 71.000,51.667 71.081,51.667 71.179 C 51.667 71.278,51.900 71.592,52.185 71.877 C 52.470 72.162,52.892 72.681,53.124 73.031 C 53.355 73.381,53.609 73.667,53.689 73.667 C 53.768 73.667,53.833 73.779,53.833 73.917 C 53.833 74.054,53.946 74.167,54.083 74.167 C 54.221 74.167,54.333 74.292,54.333 74.444 C 54.333 74.597,54.377 74.678,54.431 74.625 C 54.549 74.506,55.167 75.101,55.167 75.333 C 55.167 75.425,55.233 75.500,55.313 75.500 C 55.394 75.500,55.769 75.800,56.147 76.167 C 56.525 76.533,56.919 76.833,57.023 76.833 C 57.127 76.833,57.386 77.021,57.598 77.250 C 57.810 77.479,58.138 77.667,58.325 77.667 C 58.513 77.667,58.667 77.763,58.667 77.880 C 58.667 77.998,58.868 78.111,59.114 78.131 C 59.359 78.151,59.723 78.274,59.921 78.404 C 60.442 78.746,64.395 78.748,64.735 78.407 C 64.868 78.275,65.209 78.167,65.493 78.167 C 65.799 78.167,66.050 78.065,66.106 77.917 C 66.159 77.779,66.371 77.667,66.578 77.667 C 66.784 77.667,67.094 77.479,67.266 77.250 C 67.438 77.021,67.674 76.833,67.790 76.833 C 67.905 76.833,68.000 76.730,68.000 76.603 C 68.000 76.476,68.156 76.332,68.346 76.282 C 68.536 76.232,68.732 76.036,68.782 75.846 C 68.832 75.656,68.976 75.500,69.103 75.500 C 69.230 75.500,69.333 75.415,69.333 75.311 C 69.333 75.207,69.521 74.948,69.750 74.735 C 69.979 74.523,70.167 74.279,70.167 74.192 C 70.167 74.106,70.279 73.992,70.417 73.940 C 70.554 73.887,70.667 73.767,70.667 73.673 C 70.667 73.491,71.226 72.783,71.708 72.353 C 71.869 72.210,72.000 71.994,72.000 71.874 C 72.000 71.754,72.112 71.613,72.250 71.560 C 72.387 71.508,72.500 71.392,72.500 71.304 C 72.500 71.216,72.762 70.897,73.083 70.594 C 73.404 70.292,73.667 69.959,73.667 69.855 C 73.667 69.752,73.740 69.667,73.830 69.667 C 73.920 69.667,74.041 69.479,74.098 69.250 C 74.156 69.021,74.307 68.833,74.435 68.833 C 74.562 68.833,74.667 68.721,74.667 68.583 C 74.667 68.446,74.742 68.333,74.833 68.333 C 74.925 68.333,75.000 68.223,75.000 68.089 C 75.000 67.939,75.098 67.881,75.250 67.940 C 75.411 68.002,75.500 67.936,75.500 67.756 C 75.500 67.602,75.594 67.372,75.708 67.244 C 76.182 66.715,76.333 66.507,76.334 66.382 C 76.334 66.309,76.559 66.100,76.833 65.917 C 77.108 65.733,77.333 65.469,77.333 65.329 C 77.333 65.032,78.232 64.000,78.491 64.000 C 78.587 64.000,78.667 63.887,78.667 63.750 C 78.667 63.612,78.742 63.500,78.833 63.500 C 78.925 63.500,79.000 63.387,79.000 63.250 C 79.000 63.112,79.074 63.000,79.163 63.000 C 79.253 63.000,79.374 62.813,79.432 62.583 C 79.489 62.354,79.641 62.167,79.768 62.167 C 79.896 62.167,80.000 62.086,80.000 61.988 C 80.000 61.757,80.424 61.333,80.655 61.333 C 80.753 61.333,80.833 61.221,80.833 61.083 C 80.833 60.946,80.913 60.833,81.010 60.833 C 81.107 60.833,81.140 60.758,81.083 60.667 C 81.027 60.575,81.060 60.500,81.157 60.500 C 81.254 60.500,81.333 60.387,81.333 60.250 C 81.333 60.112,81.408 60.000,81.500 60.000 C 81.592 60.000,81.667 59.887,81.667 59.750 C 81.667 59.612,81.752 59.500,81.855 59.500 C 82.119 59.500,82.674 58.839,82.869 58.292 C 82.959 58.040,83.138 57.833,83.266 57.833 C 83.395 57.833,83.500 57.748,83.500 57.644 C 83.500 57.540,83.688 57.281,83.917 57.069 C 84.146 56.856,84.333 56.612,84.333 56.526 C 84.333 56.440,84.446 56.326,84.583 56.273 C 84.721 56.220,84.833 56.025,84.833 55.839 C 84.833 55.652,84.933 55.500,85.055 55.500 C 85.177 55.500,85.377 55.313,85.500 55.083 C 85.623 54.854,85.823 54.667,85.945 54.667 C 86.067 54.667,86.167 54.554,86.167 54.417 C 86.167 54.279,86.234 54.167,86.315 54.167 C 86.397 54.167,86.511 53.979,86.568 53.750 C 86.626 53.521,86.747 53.333,86.837 53.333 C 86.926 53.333,87.000 53.221,87.000 53.083 C 87.000 52.946,87.066 52.833,87.147 52.833 C 87.374 52.833,88.333 51.797,88.333 51.552 C 88.333 51.432,88.633 51.033,89.000 50.667 C 89.367 50.300,89.667 49.850,89.667 49.667 C 89.667 49.481,89.778 49.333,89.917 49.333 C 90.054 49.333,90.167 49.195,90.167 49.026 C 90.167 48.856,90.285 48.480,90.431 48.189 C 90.705 47.638,90.627 46.333,90.319 46.333 C 90.235 46.333,90.167 46.175,90.167 45.982 C 90.167 45.543,88.847 44.218,88.265 44.072 C 88.028 44.013,87.833 43.896,87.833 43.814 C 87.833 43.620,52.212 43.622,52.138 43.816 " stroke="none" fill="#9fa4b1" fill-rule="evenodd"></path><path id="path2" d="" stroke="none" fill="#1009c30" fill-rule="evenodd"></path><path id="path3" d="" stroke="none" fill="#1009c30" fill-rule="evenodd"></path><path id="path4" d="" stroke="none" fill="#1009c30" fill-rule="evenodd"></path></g></svg>